<?xml version="1.0" standalone="no"?><!-- Generator: Gravit.io --><svg xmlns="http://www.w3.org/2000/svg" xmlns:xlink="http://www.w3.org/1999/xlink" style="isolation:isolate" viewBox="0 0 300 300" width="300" height="300"><defs><clipPath id="_clipPath_zgmuHzgLplSzAj2Qbu1yz6FFftvrhSNu"><rect width="300" height="300"/></clipPath></defs><g clip-path="url(#_clipPath_zgmuHzgLplSzAj2Qbu1yz6FFftvrhSNu)"><rect x="138" y="90" width="24" height="24" transform="matrix(1,0,0,1,0,0)" fill="rgb(93,93,93)"/><rect x="114" y="90" width="24" height="24" transform="matrix(1,0,0,1,0,0)" fill="rgb(93,93,93)"/><rect x="162" y="90" width="24" height="24" transform="matrix(1,0,0,1,0,0)" fill="rgb(93,93,93)"/><rect x="138" y="114" width="24" height="24" transform="matrix(1,0,0,1,0,0)" fill="rgb(93,93,93)"/><rect x="90" y="114" width="24" height="24" transform="matrix(1,0,0,1,0,0)" fill="rgb(93,93,93)"/><rect x="90" y="138" width="24" height="24" transform="matrix(1,0,0,1,0,0)" fill="rgb(93,93,93)"/><rect x="114" y="138" width="24" height="24" transform="matrix(1,0,0,1,0,0)" fill="rgb(93,93,93)"/><rect x="138" y="138" width="24" height="24" transform="matrix(1,0,0,1,0,0)" fill="rgb(93,93,93)"/><rect x="162" y="138" width="24" height="24" transform="matrix(1,0,0,1,0,0)" fill="rgb(93,93,93)"/><rect x="186" y="138" width="24" height="24" transform="matrix(1,0,0,1,0,0)" fill="rgb(93,93,93)"/><rect x="186" y="114" width="24" height="24" transform="matrix(1,0,0,1,0,0)" fill="rgb(93,93,93)"/><rect x="90" y="162" width="24" height="24" transform="matrix(1,0,0,1,0,0)" fill="rgb(93,93,93)"/><rect x="114" y="162" width="24" height="24" transform="matrix(1,0,0,1,0,0)" fill="rgb(93,93,93)"/><rect x="138" y="162" width="24" height="24" transform="matrix(1,0,0,1,0,0)" fill="rgb(93,93,93)"/><rect x="162" y="162" width="24" height="24" transform="matrix(1,0,0,1,0,0)" fill="rgb(93,93,93)"/><rect x="186" y="162" width="24" height="24" transform="matrix(1,0,0,1,0,0)" fill="rgb(93,93,93)"/><rect x="90" y="186" width="24" height="24" transform="matrix(1,0,0,1,0,0)" fill="rgb(93,93,93)"/><rect x="138" y="186" width="24" height="24" transform="matrix(1,0,0,1,0,0)" fill="rgb(93,93,93)"/><rect x="186" y="186" width="24" height="24" transform="matrix(1,0,0,1,0,0)" fill="rgb(93,93,93)"/></g></svg>