<?xml version="1.0" standalone="no"?><!-- Generator: Gravit.io --><svg xmlns="http://www.w3.org/2000/svg" xmlns:xlink="http://www.w3.org/1999/xlink" style="isolation:isolate" viewBox="0 0 150 150" width="150" height="150"><defs><clipPath id="_clipPath_rigvwsHx7Lpp1O2nYOKiDd7ykLg2QkPQ"><rect width="150" height="150"/></clipPath></defs><g clip-path="url(#_clipPath_rigvwsHx7Lpp1O2nYOKiDd7ykLg2QkPQ)"><rect x="63" y="15" width="24" height="24" transform="matrix(1,0,0,1,0,0)" fill="rgb(93,93,93)"/><rect x="39" y="15" width="24" height="24" transform="matrix(1,0,0,1,0,0)" fill="rgb(93,93,93)"/><rect x="87" y="15" width="24" height="24" transform="matrix(1,0,0,1,0,0)" fill="rgb(93,93,93)"/><rect x="63" y="39" width="24" height="24" transform="matrix(1,0,0,1,0,0)" fill="rgb(93,93,93)"/><rect x="15" y="39" width="24" height="24" transform="matrix(1,0,0,1,0,0)" fill="rgb(93,93,93)"/><rect x="15" y="63" width="24" height="24" transform="matrix(1,0,0,1,0,0)" fill="rgb(93,93,93)"/><rect x="39" y="63" width="24" height="24" transform="matrix(1,0,0,1,0,0)" fill="rgb(93,93,93)"/><rect x="63" y="63" width="24" height="24" transform="matrix(1,0,0,1,0,0)" fill="rgb(93,93,93)"/><rect x="87" y="63" width="24" height="24" transform="matrix(1,0,0,1,0,0)" fill="rgb(93,93,93)"/><rect x="111" y="63" width="24" height="24" transform="matrix(1,0,0,1,0,0)" fill="rgb(93,93,93)"/><rect x="111" y="39" width="24" height="24" transform="matrix(1,0,0,1,0,0)" fill="rgb(93,93,93)"/><rect x="15" y="87" width="24" height="24" transform="matrix(1,0,0,1,0,0)" fill="rgb(93,93,93)"/><rect x="39" y="87" width="24" height="24" transform="matrix(1,0,0,1,0,0)" fill="rgb(93,93,93)"/><rect x="63" y="87" width="24" height="24" transform="matrix(1,0,0,1,0,0)" fill="rgb(93,93,93)"/><rect x="87" y="87" width="24" height="24" transform="matrix(1,0,0,1,0,0)" fill="rgb(93,93,93)"/><rect x="111" y="87" width="24" height="24" transform="matrix(1,0,0,1,0,0)" fill="rgb(93,93,93)"/><rect x="15" y="111" width="24" height="24" transform="matrix(1,0,0,1,0,0)" fill="rgb(93,93,93)"/><rect x="63" y="111" width="24" height="24" transform="matrix(1,0,0,1,0,0)" fill="rgb(93,93,93)"/><rect x="111" y="111" width="24" height="24" transform="matrix(1,0,0,1,0,0)" fill="rgb(93,93,93)"/></g></svg>